<svg width="12" height="10" viewBox="0 0 12 10" fill="none" xmlns="http://www.w3.org/2000/svg">
<path d="M11.2071 1.1833C10.7881 1.36953 10.3458 1.48593 9.88023 1.55576C10.3458 1.27641 10.7183 0.834113 10.8812 0.298695C10.4389 0.554765 9.95006 0.740997 9.41465 0.857392C8.99562 0.41509 8.39037 0.135742 7.73856 0.135742C6.48149 0.135742 5.45721 1.16002 5.45721 2.41709C5.45721 2.60332 5.48049 2.76627 5.52705 2.92922C3.64145 2.83611 1.94208 1.92823 0.801411 0.531486C0.615178 0.880671 0.498783 1.25313 0.498783 1.67216C0.498783 2.46364 0.894527 3.16201 1.52306 3.58104C1.1506 3.55776 0.801411 3.46464 0.475504 3.30169V3.32497C0.475504 4.44236 1.26699 5.37352 2.31455 5.58303C2.12831 5.62959 1.9188 5.65287 1.70929 5.65287C1.56962 5.65287 1.40666 5.62959 1.26699 5.60631C1.56962 6.51419 2.40766 7.18928 3.40866 7.18928C2.61717 7.79454 1.63945 8.167 0.56862 8.167C0.382388 8.167 0.196156 8.167 0.0332031 8.14372C1.05748 8.79554 2.24471 9.168 3.54833 9.168C7.76184 9.168 10.0665 5.67615 10.0665 2.64988C10.0665 2.55676 10.0665 2.44036 10.0665 2.34725C10.5088 2.04462 10.9045 1.64888 11.2071 1.1833Z" fill="#7F60F9"/>
</svg>
