<svg width="14" height="14" viewBox="0 0 14 14" fill="none" xmlns="http://www.w3.org/2000/svg">
<path d="M7.00076 1.6474C8.80947 1.6474 9.02366 1.65418 9.73818 1.68676C10.1678 1.69201 10.5933 1.7709 10.9962 1.91998C11.2884 2.03267 11.5538 2.2053 11.7753 2.42676C11.9967 2.64821 12.1694 2.91358 12.282 3.20579C12.4311 3.60873 12.51 4.03425 12.5153 4.46385C12.5475 5.17837 12.5546 5.39256 12.5546 7.20127C12.5546 9.00998 12.5479 9.22418 12.5153 9.93869C12.51 10.3683 12.4311 10.7938 12.282 11.1968C12.1694 11.489 11.9967 11.7543 11.7753 11.9758C11.5538 12.1972 11.2884 12.3699 10.9962 12.4826C10.5933 12.6316 10.1678 12.7105 9.73818 12.7158C9.02398 12.748 8.80979 12.7551 7.00076 12.7551C5.19172 12.7551 4.97753 12.7484 4.26334 12.7158C3.83373 12.7105 3.40821 12.6316 3.00527 12.4826C2.71307 12.3699 2.44769 12.1972 2.22624 11.9758C2.00479 11.7543 1.83216 11.489 1.71947 11.1968C1.57038 10.7938 1.4915 10.3683 1.48624 9.93869C1.45398 9.22418 1.44689 9.00998 1.44689 7.20127C1.44689 5.39256 1.45366 5.17837 1.48624 4.46385C1.4915 4.03425 1.57038 3.60873 1.71947 3.20579C1.83216 2.91358 2.00479 2.64821 2.22624 2.42676C2.44769 2.2053 2.71307 2.03267 3.00527 1.91998C3.40821 1.7709 3.83373 1.69201 4.26334 1.68676C4.97785 1.6545 5.19205 1.6474 7.00076 1.6474ZM7.00076 0.426758C5.16205 0.426758 4.93043 0.4345 4.20785 0.467403C3.64561 0.478586 3.08934 0.585042 2.56269 0.782242C2.11092 0.952456 1.70172 1.2192 1.36366 1.56385C1.01869 1.90204 0.751722 2.31147 0.581401 2.76353C0.384201 3.29018 0.277746 3.84645 0.266563 4.40869C0.234304 5.13063 0.226562 5.36224 0.226562 7.20095C0.226562 9.03966 0.234304 9.27127 0.267208 9.99385C0.278391 10.5561 0.384847 11.1124 0.582046 11.639C0.752178 12.091 1.01892 12.5004 1.36366 12.8387C1.70191 13.1834 2.11133 13.4502 2.56334 13.6203C3.08998 13.8175 3.64626 13.924 4.2085 13.9351C4.93108 13.9674 5.16172 13.9758 7.0014 13.9758C8.84108 13.9758 9.07172 13.968 9.7943 13.9351C10.3565 13.924 10.9128 13.8175 11.4395 13.6203C11.8893 13.4459 12.2978 13.1796 12.6389 12.8383C12.98 12.497 13.246 12.0883 13.4201 11.6384C13.6173 11.1117 13.7238 10.5555 13.735 9.99321C13.7672 9.27127 13.775 9.03966 13.775 7.20095C13.775 5.36224 13.7672 5.13063 13.7343 4.40805C13.7231 3.8458 13.6167 3.28953 13.4195 2.76289C13.2493 2.31088 12.9826 1.90146 12.6379 1.56321C12.2996 1.21847 11.8902 0.951728 11.4382 0.781596C10.9115 0.584397 10.3553 0.477941 9.79301 0.466758C9.07108 0.4345 8.83947 0.426758 7.00076 0.426758Z" fill="#7F60F9"/>
<path d="M7.00215 3.72363C6.31413 3.72363 5.64155 3.92766 5.06948 4.3099C4.49741 4.69215 4.05154 5.23545 3.78824 5.8711C3.52494 6.50675 3.45605 7.2062 3.59028 7.881C3.72451 8.55581 4.05582 9.17565 4.54233 9.66216C5.02884 10.1487 5.64868 10.48 6.32349 10.6142C6.99829 10.7484 7.69774 10.6795 8.33339 10.4163C8.96904 10.153 9.51234 9.70708 9.89459 9.13501C10.2768 8.56294 10.4809 7.89037 10.4809 7.20234C10.4809 6.27973 10.1144 5.39491 9.46197 4.74252C8.80958 4.09014 7.92476 3.72363 7.00215 3.72363ZM7.00215 9.46041C6.55555 9.46041 6.11897 9.32797 5.74764 9.07985C5.3763 8.83173 5.08688 8.47907 4.91597 8.06647C4.74506 7.65386 4.70034 7.19984 4.78747 6.76182C4.8746 6.32379 5.08966 5.92145 5.40546 5.60565C5.72125 5.28985 6.1236 5.07479 6.56162 4.98767C6.99964 4.90054 7.45367 4.94526 7.86627 5.11616C8.27888 5.28707 8.63154 5.57649 8.87966 5.94783C9.12778 6.31917 9.26021 6.75574 9.26021 7.20234C9.26021 7.80122 9.02231 8.37557 8.59884 8.79903C8.17537 9.2225 7.60102 9.46041 7.00215 9.46041Z" fill="#7F60F9"/>
<path d="M10.6176 4.39827C11.0665 4.39827 11.4305 4.03432 11.4305 3.58536C11.4305 3.13641 11.0665 2.77246 10.6176 2.77246C10.1686 2.77246 9.80469 3.13641 9.80469 3.58536C9.80469 4.03432 10.1686 4.39827 10.6176 4.39827Z" fill="#7F60F9"/>
</svg>
