<svg width="14" height="14" viewBox="0 0 14 14" fill="none" xmlns="http://www.w3.org/2000/svg">
<path fill-rule="evenodd" clip-rule="evenodd" d="M6.60685 0.426758C3.01591 0.426758 0.126953 3.31571 0.126953 6.90665C0.126953 9.76861 1.98992 12.1986 4.55488 13.0626C4.87888 13.1166 4.98688 12.9276 4.98688 12.7386C4.98688 12.5766 4.98688 12.1716 4.98688 11.6316C3.1779 12.0366 2.79991 10.7676 2.79991 10.7676C2.50291 10.0116 2.07092 9.82261 2.07092 9.82261C1.47693 9.41761 2.12492 9.41761 2.12492 9.41761C2.77291 9.47161 3.1239 10.0926 3.1239 10.0926C3.6909 11.0916 4.63588 10.7946 5.01387 10.6326C5.06787 10.2006 5.22987 9.93061 5.41887 9.76861C3.98789 9.60661 2.47592 9.03962 2.47592 6.55566C2.47592 5.85367 2.71891 5.25968 3.1509 4.82769C3.09691 4.66569 2.85391 4.0177 3.2049 3.09971C3.2049 3.09971 3.74489 2.93772 4.98688 3.7747C5.49987 3.63971 6.06686 3.55871 6.60685 3.55871C7.14684 3.55871 7.71383 3.63971 8.22682 3.7747C9.4688 2.93772 10.0088 3.09971 10.0088 3.09971C10.3598 3.9907 10.1438 4.63869 10.0628 4.82769C10.4678 5.28668 10.7378 5.85367 10.7378 6.55566C10.7378 9.03962 9.22581 9.57961 7.76783 9.74161C8.01083 9.9306 8.19982 10.3356 8.19982 10.9296C8.19982 11.7936 8.19982 12.4956 8.19982 12.7116C8.19982 12.8736 8.30782 13.0896 8.65882 13.0356C11.2238 12.1986 13.0867 9.76861 13.0867 6.90665C13.0867 3.31571 10.1978 0.426758 6.60685 0.426758Z" fill="#7F60F9"/>
</svg>
