<svg width="37" height="38" viewBox="0 0 37 38" fill="none" xmlns="http://www.w3.org/2000/svg">
<path d="M18.5015 0.498047C14.8423 0.498047 11.2652 1.57814 8.22264 3.60175C5.18011 5.62536 2.80868 8.50158 1.40835 11.8667C0.00801569 15.2319 -0.358374 18.9348 0.355509 22.5072C1.0694 26.0797 2.83151 29.361 5.41897 31.9364C8.00645 34.512 11.3032 36.2661 14.8921 36.9769C18.481 37.6874 22.201 37.3226 25.5818 35.929C28.9626 34.5349 31.8518 32.1744 33.885 29.1459C35.918 26.1174 37.003 22.5567 37.003 18.9143C37.003 14.03 35.0538 9.34575 31.5841 5.89205C28.1143 2.43832 23.4085 0.498047 18.5015 0.498047ZM29.8666 21.6057C29.8666 21.9741 28.1962 22.0267 28.1962 22.395C28.1962 22.7633 29.8483 23.2632 29.8483 23.771C29.8483 24.3918 26.4439 24.4839 26.4439 25.1049C26.4439 25.7679 29.0261 25.5626 29.0261 26.2809C29.0261 27.128 22.5402 26.7333 22.5402 27.6147C22.5402 27.9514 23.3702 28.0909 24.4089 28.2015C24.9798 28.2645 24.8554 28.5434 24.5305 28.7277C22.7147 29.8304 20.6287 30.4139 18.5015 30.4139C16.3744 30.4139 14.2884 29.8304 12.4726 28.7277C12.1502 28.5303 12.0233 28.2515 12.5942 28.2015C13.633 28.0909 14.4656 27.9383 14.4656 27.6147C14.4656 26.7333 7.97679 27.128 7.97679 26.2809C7.97679 25.5626 10.5617 25.7547 10.5617 25.1049C10.5617 24.4839 7.15484 24.3918 7.15484 23.771C7.15484 23.2632 8.80942 22.7712 8.80942 22.395C8.80942 22.0188 7.13633 21.9767 7.13633 21.6057C7.13633 21.2348 8.35745 20.9954 8.35745 20.7323C8.35745 20.235 6.93808 21.1401 6.93808 18.9143C6.93808 15.8616 8.15642 12.934 10.325 10.7754C12.4936 8.61683 15.4347 7.40414 18.5015 7.40414C21.5683 7.40414 24.5096 8.61683 26.6782 10.7754C28.8467 12.934 30.0649 15.8616 30.0649 18.9143C30.0649 21.1401 28.6457 20.2298 28.6457 20.7323C28.6457 20.9954 29.8666 21.2085 29.8666 21.6057Z" fill="#7F60F9"/>
</svg>
