<svg width="30" height="57" viewBox="0 0 30 57" fill="none" xmlns="http://www.w3.org/2000/svg">
<path d="M27.8789 43.3135H26.9297L25.9219 44.333V56.3564H27.8789V43.3135ZM3.07031 43.3135H2.12109V56.3564H4.07813V44.333L3.07031 43.3135ZM8.6836 56.3564H6.03516V45.5752H23.9648V56.3564H21.3164V50.2627C21.3164 49.4424 20.6602 48.7393 19.8516 48.7393C19.043 48.7393 18.3867 49.4424 18.3867 50.2627V56.3564H16.4648V50.2627C16.4648 49.4424 15.8086 48.7393 15 48.7393C14.1914 48.7393 13.5352 49.4424 13.5352 50.2627V56.3564H11.6133V50.2627C11.6133 49.4424 10.957 48.7393 10.1484 48.7393C9.33985 48.7393 8.6836 49.4424 8.6836 50.2627V56.3564ZM5.89453 44.1104H24.1055L26.4141 41.8135H29.5898V39.8564H25.6055L23.2969 42.165H6.70313L4.39453 39.8564H0.410157V41.8135H3.58594L5.89453 44.1104ZM6.08203 38.415H23.918L22.1602 40.1728H7.83984L6.08203 38.415ZM25.9219 19.1611V37.8291H27.8789V19.1611H25.9219ZM2.12109 19.1611V37.8291H4.07813V19.1611H2.12109ZM23.8828 19.1611H6.11719V36.915H23.8828V19.1611ZM23.2031 28.0439C23.2031 32.5674 19.5234 36.2353 15 36.2353C10.4766 36.2353 6.79688 32.5674 6.79688 28.0439C6.79688 23.5205 10.4766 19.8408 15 19.8408C19.5234 19.8408 23.2031 23.5205 23.2031 28.0439ZM8.26172 28.0439C8.26172 31.7588 11.2852 34.7705 15 34.7705C18.7148 34.7705 21.7383 31.7588 21.7383 28.0439C21.7383 24.3291 18.7148 21.3057 15 21.3057C11.2852 21.3057 8.26172 24.3291 8.26172 28.0439ZM10.8281 30.6221L15.375 26.5205C15.2461 26.1689 15.1758 25.8994 15.1641 25.6885C15.1289 25.3955 15.1758 25.1846 15.2695 25.0322C15.4219 24.7861 15.7148 24.6572 16.1016 24.5986C16.8047 24.4932 17.9297 24.5752 18.8438 23.6611L19.3828 24.2002L19.3359 24.2471C18.4688 25.1494 18.5508 26.251 18.4336 26.9424C18.375 27.3291 18.2461 27.6104 18.0117 27.7627C17.8477 27.8682 17.6367 27.915 17.3555 27.8799C17.1328 27.8564 16.8633 27.7861 16.5234 27.6572L12.4219 32.2041L10.8281 30.6221ZM1.96875 17.3213H28.0313L29.9766 15.376L28.5938 13.9932L27.2227 15.3643H2.77734L1.40625 13.9932L0.0234375 15.376L1.96875 17.3213ZM13.0547 0.24707H16.9453L25.1953 13.4189H4.80469L13.0547 0.24707ZM13.5352 10.9814H16.4648V7.59473C16.4648 6.78613 15.8086 6.12988 15 6.12988C14.1914 6.12988 13.5352 6.78613 13.5352 7.59473V10.9814Z" fill="black"/>
</svg>
